<svg xmlns="http://www.w3.org/2000/svg" width="666.666" height="666.666" viewBox="0 0 625 625"><circle cx="312.5" cy="312.5" r="267.004" fill="#00c99b" stroke="#203748" stroke-width="15.991"/><path d="M435.61 103.706l19.578 28.929 61.096 90.694 21.124 31.274 15.171 23.455H478.08c-.975 23.387-3.405 48.628-8.856 69.585-5.87 22.126-13.91 42.806-25.761 61.765-28.978 46.364-72.375 72.509-120.646 84.948-12.066 3.112-33.141 7.287-45.256 7.31h-13.925l-.696-16.418c12.351-1.838 22.001-5.145 33.42-10.618 8.78-4.206 17.288-9.28 25.065-15.52 40.695-32.657 60.49-83.008 67.34-137.268l1.707-18.765 1.274-25.019h-73.803c1.449-4.91 7.032-11.97 10.005-16.419l22.113-32.837 54.83-81.312 29.326-43.784zm-1.393 28.147l-21.326 32.055-41.093 60.985-23.916 35.964h59.181c-.307 12.784-.297 25.566-1.33 38.311-.886 15.219-1.3 21.016-3.947 36.747-5.146 32.032-15.666 66.41-32.62 93.04-7.84 12.33-16.139 22.595-26.158 32.704l-14.62 13.425c11.306-1.79 30.655-11.157 41.078-17.006 15.248-8.56 29.277-19.249 41.775-32.321 40.473-52.084 51.978-104.96 52.218-164.9h58.485l-25.155-38.31-39.512-58.639-21.668-32.055z" fill="#fefefe"/><path d="M157.08 410.92c6.522-2.858 13.19-6.17 20.03-8.752l25.637-13.14c6.081-3.406 9.936-5.14 14.557-8.41l7.756-4.774c12.053-6.713 24.185-12.225 36.172-12.746 15.394-.911 22.08 6.052 34.45 15.19l16.825 12.38c9.367 6.388 11.693 12.663 12.947 20.71 1.564 28.122-2.598 52.074-14.028 76.032-4.584 9.494-9.367 19.062-14.109 27.72l-8.292 15.048c-3.47 5.58-11.31 19.37-15.911 21.606-5.192 2.677-14.694.729-20.23 0l-17.289-2.598c9.815-15.864 19.852-32.883 28.041-47.52-19.47 16.33-32.807 27.95-49.672 40.868-3.982.617-14.822-5.465-19.228-7.231-5.083-2.842-14.196-7.535-16.024-10.669 3.57-4.492 11.826-11.574 23.234-23.76-13.772 5.403-23.13 10.777-36.052 15.84l-9.542-8.743c-12.48-14.182-25.623-31.414-32.12-47.488 12.47-8.88 26.418-18.421 39.258-27.72-16.434 6.664-29.294 11.02-45.666 16.632l-7.21-24.552c15.92-3.948 31.889-8.486 46.467-13.924z" fill="#203748"/><path d="M186.724 330.595c-28.158 4.646-35.634 7.916-40.058 31.68-5.912-23.718-9.3-27.63-33.65-31.68 24.052-3.939 30.137-6.723 33.65-34.056 5.138 27.866 11.669 28.892 40.058 34.056zM226.782 241.891c-20.2 2.77-25.147 5.776-29.643 26.136-3.83-20.724-11.693-24.484-32.848-26.928 22.236-4.213 30.846-8.081 32.848-29.304 3.484 21.47 10.64 26.086 29.643 30.096zM280.46 297.33c-19.49 1.086-22.297 4.822-24.836 19.009-2.579-14.816-6.005-17.265-20.83-19.8 14.944-2.514 18.934-7.108 20.83-20.592 2.927 14.381 5.497 18.025 24.837 21.384z" fill="#fff"/><path d="M423.934 181.691c1.882-2.526 6.153-8.688 8.308-10.486 4.542-3.778 8.933-4.546 14.044-1.584 1.971 1.14 3.365 2.154 4.463 4.19 3.092 5.773-.016 13.25-3.293 18.184-41.888 61.034-85.855 125.194-123.732 181.368-5.416-1.576-20.647-13.385-26.439-17.424 46.067-65.711 84-115.58 126.649-174.248z" fill="#203748"/></svg>