<?xml version="1.0" encoding="UTF-8" standalone="no"?>
<svg
   xmlns:dc="http://purl.org/dc/elements/1.1/"
   xmlns:cc="http://creativecommons.org/ns#"
   xmlns:rdf="http://www.w3.org/1999/02/22-rdf-syntax-ns#"
   xmlns:svg="http://www.w3.org/2000/svg"
   xmlns="http://www.w3.org/2000/svg"
   xmlns:sodipodi="http://sodipodi.sourceforge.net/DTD/sodipodi-0.dtd"
   xmlns:inkscape="http://www.inkscape.org/namespaces/inkscape"
   width="6.94444in"
   height="6.94444in"
   viewBox="0 0 625 625"
   version="1.1"
   id="svg4533"
   sodipodi:docname="cleanupdate.svg"
   inkscape:version="0.92.1 r"
   inkscape:export-filename="/home/cubanpit/Dropbox/manjaro/cleanupdate/cleanupdate.png"
   inkscape:export-xdpi="18.432011"
   inkscape:export-ydpi="18.432011">
  <metadata
     id="metadata4539">
    <rdf:RDF>
      <cc:Work
         rdf:about="">
        <dc:format>image/svg+xml</dc:format>
        <dc:type
           rdf:resource="http://purl.org/dc/dcmitype/StillImage" />
        <dc:title />
      </cc:Work>
    </rdf:RDF>
  </metadata>
  <defs
     id="defs4537">
    <inkscape:tag
       id="Set 1" />
  </defs>
  <sodipodi:namedview
     pagecolor="#ffffff"
     bordercolor="#666666"
     borderopacity="1"
     objecttolerance="10"
     gridtolerance="10"
     guidetolerance="10"
     inkscape:pageopacity="0"
     inkscape:pageshadow="2"
     inkscape:window-width="1366"
     inkscape:window-height="744"
     id="namedview4535"
     showgrid="false"
     inkscape:snap-bbox="true"
     inkscape:object-paths="true"
     inkscape:zoom="0.79417461"
     inkscape:cx="235.84602"
     inkscape:cy="344.43164"
     inkscape:window-x="0"
     inkscape:window-y="24"
     inkscape:window-maximized="1"
     inkscape:current-layer="layer4"
     inkscape:measure-start="0,0"
     inkscape:measure-end="0,0"
     inkscape:bbox-paths="true"
     inkscape:bbox-nodes="false"
     inkscape:object-nodes="true" />
  <g
     inkscape:groupmode="layer"
     id="layer4"
     inkscape:label="background"
     style="display:inline">
    <circle
       style="fill:#00c99b;fill-opacity:1;stroke:#203748;stroke-width:15.99098778;stroke-miterlimit:4;stroke-dasharray:none;stroke-opacity:1"
       id="path6670"
       cx="312.49988"
       cy="312.50009"
       inkscape:export-filename="/home/cubanpit/path6670.png"
       inkscape:export-xdpi="156"
       inkscape:export-ydpi="156"
       r="267.00436" />
  </g>
  <g
     inkscape:groupmode="layer"
     id="layer2"
     inkscape:label="update"
     style="display:inline;opacity:1">
    <path
       d="m 435.60929,103.70616 19.57851,28.92836 61.09577,90.69429 21.12419,31.27388 15.17124,23.45543 h -74.49855 c -0.97572,23.38686 -3.40559,48.62809 -8.85628,69.58441 -5.86936,22.12628 -13.91103,42.80617 -25.76121,61.76593 -28.97782,46.36355 -72.37498,72.50852 -120.64584,84.94771 -12.066,3.11177 -33.14145,7.28685 -45.25614,7.31033 h -13.92497 l -0.69624,-16.41885 c 12.35142,-1.83731 22.00144,-5.14454 33.41988,-10.61748 8.7797,-4.20631 17.28786,-9.28052 25.06496,-15.51966 40.69572,-32.65779 60.49003,-83.00872 67.34112,-137.26893 l 1.70581,-18.76432 1.27412,-25.01914 h -73.80228 c 1.44819,-4.91001 7.03209,-11.97007 10.00505,-16.4188 l 22.11285,-32.83757 54.82955,-81.31213 29.326,-43.78346 z m -1.39246,28.14648 -21.32611,32.05575 -41.09256,60.98412 -23.91613,35.96499 h 59.18109 c -0.30725,12.78347 -0.29699,25.56503 -1.32982,38.31051 -0.88667,15.21868 -1.29951,21.01568 -3.94774,36.74682 -5.14527,32.03228 -15.66558,66.41009 -32.61921,93.03981 -7.83975,12.32974 -16.13903,22.59542 -26.15805,32.70469 l -14.62119,13.42431 c 11.30705,-1.79041 30.65577,-11.15694 41.0786,-17.00517 15.24785,-8.56122 29.27728,-19.24909 41.77493,-32.32155 40.47301,-52.08383 51.97829,-104.95934 52.21858,-164.89942 h 58.48486 l -25.15545,-38.31054 -39.51209,-58.63857 -21.66725,-32.05575 z"
       id="Selection-3"
       inkscape:connector-curvature="0"
       style="fill:#fefefe;fill-opacity:1;stroke:none;stroke-width:0.73780745"
       sodipodi:nodetypes="cccccccsccccccccccccccccccccccccccccccccc"
       inkscape:export-filename="/home/cubanpit/path6670.png"
       inkscape:export-xdpi="156"
       inkscape:export-ydpi="156" />
  </g>
  <g
     inkscape:groupmode="layer"
     id="layer3"
     inkscape:label="clean"
     style="display:inline">
    <path
       style="fill:#203748;fill-opacity:1;stroke:none;stroke-width:0.79656959;stroke-opacity:1"
       d="m 157.08074,410.91925 c 6.52129,-2.85697 13.18848,-6.16956 20.02918,-8.75158 l 25.63737,-13.13924 c 6.08088,-3.40604 9.93612,-5.14072 14.5572,-8.41101 l 7.756,-4.77388 c 12.05246,-6.71265 24.18484,-12.225 36.172,-12.74517 15.3932,-0.91152 22.07969,6.05177 34.4502,15.19056 l 16.82452,12.37893 c 9.36634,6.3879 11.69272,12.66329 12.94687,20.71077 1.56346,28.12112 -2.59776,52.07345 -14.02848,76.03186 -4.58344,9.49357 -9.36615,19.0616 -14.10854,27.71998 l -8.29209,15.04793 c -3.46993,5.57951 -11.30979,19.36935 -15.91115,21.60572 -5.19158,2.67696 -14.69342,0.72865 -20.22949,0 l -17.28919,-2.59772 c 9.81447,-15.86469 19.85166,-32.88352 28.04087,-47.5199 -19.47042,16.3291 -32.80664,27.94912 -49.67238,40.86707 -3.98181,0.61776 -14.82159,-5.46478 -19.22803,-7.23095 -5.08236,-2.8416 -14.19562,-7.53458 -16.02332,-10.6682 3.56951,-4.49246 11.82587,-11.57488 23.23385,-23.75994 -13.77246,5.40288 -23.13079,10.77684 -36.05254,15.83995 l -9.5419,-8.74366 c -12.47988,-14.1814 -25.62239,-31.41399 -32.11879,-47.48824 12.46905,-8.87878 26.41702,-18.42094 39.25716,-27.71994 -16.434,6.66434 -29.29359,11.02098 -45.66649,16.63198 l -7.21052,-24.55196 c 15.92,-3.94746 31.88986,-8.48543 46.46769,-13.92336 z"
       id="Selection"
       inkscape:connector-curvature="0"
       inkscape:export-filename="/home/cubanpit/path6670.png"
       inkscape:export-xdpi="156"
       inkscape:export-ydpi="156" />
    <path
       style="fill:#ffffff;fill-opacity:1;stroke:none;stroke-width:0.79656959"
       d="m 186.72392,330.59478 c -28.15776,4.64599 -35.63425,7.916 -40.05833,31.67991 -5.91168,-23.71796 -9.29875,-27.62901 -33.64904,-31.67991 24.0511,-3.93837 30.13677,-6.72274 33.64904,-34.05595 5.13807,27.86634 11.66922,28.89173 40.05833,34.05595 z"
       id="path5202"
       inkscape:connector-curvature="0"
       inkscape:export-filename="/home/cubanpit/path6670.png"
       inkscape:export-xdpi="156"
       inkscape:export-ydpi="156" />
    <path
       style="fill:#ffffff;fill-opacity:1;stroke:none;stroke-width:0.79656959"
       d="m 226.78229,241.89095 c -20.20088,2.77008 -25.14707,5.77569 -29.64316,26.13596 -3.83086,-20.72372 -11.69356,-24.48345 -32.84787,-26.92797 22.2353,-4.213 30.84573,-8.08119 32.84787,-29.30393 3.48435,21.47032 10.64042,26.08602 29.64316,30.09594 z"
       id="path5206"
       inkscape:connector-curvature="0"
       inkscape:export-filename="/home/cubanpit/path6670.png"
       inkscape:export-xdpi="156"
       inkscape:export-ydpi="156" />
    <path
       style="fill:#ffffff;fill-opacity:1;stroke:none;stroke-width:0.79656959"
       d="m 280.46051,297.33084 c -19.49029,1.08493 -22.29736,4.82098 -24.83616,19.00796 -2.57899,-14.81612 -6.00548,-17.2646 -20.83035,-19.79997 14.94382,-2.51351 18.93407,-7.10772 20.83035,-20.59195 2.92679,14.38108 5.49702,18.02553 24.83616,21.38396 z"
       id="path5204"
       inkscape:connector-curvature="0"
       inkscape:export-filename="/home/cubanpit/path6670.png"
       inkscape:export-xdpi="156"
       inkscape:export-ydpi="156" />
    <path
       style="fill:#203748;fill-opacity:1;stroke:none;stroke-width:0.79656959"
       d="m 423.93355,181.69113 c 1.88274,-2.52647 6.15296,-8.68823 8.30809,-10.48607 4.54263,-3.77783 8.93304,-4.54606 14.0445,-1.58397 1.97085,1.14047 3.36488,2.15423 4.46248,4.18967 3.09251,5.77367 -0.0161,13.25013 -3.29279,18.18429 -41.88738,61.03363 -85.85454,125.19432 -123.73228,181.36767 -5.41588,-1.5761 -20.64608,-13.3848 -26.43851,-17.42398 46.06665,-65.71117 83.9994,-115.58001 126.64851,-174.24761 z"
       id="path5208"
       inkscape:connector-curvature="0"
       inkscape:export-filename="/home/cubanpit/path6670.png"
       inkscape:export-xdpi="156"
       inkscape:export-ydpi="156" />
  </g>
</svg>
